<?xml version="1.0" encoding="utf-8"?>
<!-- Generator: Adobe Illustrator 22.0.0, SVG Export Plug-In . SVG Version: 6.00 Build 0)  -->
<svg version="1.1" id="Camada_1" xmlns="http://www.w3.org/2000/svg" xmlns:xlink="http://www.w3.org/1999/xlink" x="0px" y="0px"
	 viewBox="0 0 1158.6 632.8" style="enable-background:new 0 0 1158.6 632.8;" xml:space="preserve">
<style type="text/css">
	.st0{fill:#323657;}
	.st1{fill:#202338;}
	.st2{fill:#2F6B8C;}
	.st3{fill:#FAA146;}
	.st4{fill:#8E4F3A;}
	.st5{fill:#F08D29;}
	.st6{fill:#B86C1F;}
	.st7{fill:#C4B4AF;}
	.st8{fill:#EB4747;}
	.st9{fill:#CF2B2B;}
	.st10{fill:#E03636;}
	.st11{fill:#EDDAD3;}
	.st12{fill:#DECCC6;}
	.st13{fill:#E3D1CA;}
	.st14{fill:#B39696;}
	.st15{fill:#DBB8B8;}
	.st16{fill:#F2CBCB;}
	.st17{fill:#163342;}
	.st18{fill:#613628;}
	.st19{fill:#EEA886;}
	.st20{fill:#2F4563;}
	.st21{fill:#272A45;}
	.st22{fill:#E55353;}
	.st23{fill:#DB9C7C;}
	.st24{fill:#486996;}
	.st25{fill:#A77860;}
	.st26{fill:#3D74A1;}
	.st27{fill:#B04040;}
	.st28{fill:url(#SVGID_1_);}
	.st29{fill:url(#SVGID_2_);}
	.st30{fill:url(#SVGID_3_);}
	.st31{fill:#B3C2B6;}
	.st32{fill:#EEA987;}
	.st33{fill:url(#SVGID_4_);}
	.st34{fill:url(#SVGID_5_);}
	.st35{fill:url(#SVGID_6_);}
	.st36{fill:#D6E6D8;}
	.st37{fill:#2E587A;}
	.st38{fill:#59A9EB;}
	.st39{fill:#A87860;}
	.st40{fill:#FFCDA3;}
	.st41{fill:#5E5C5A;}
	.st42{fill:url(#SVGID_7_);}
	.st43{fill:url(#SVGID_8_);}
</style>
<g>
	<g>
		<g>
			<g>
				<path class="st0" d="M498.8,287.1C498.8,287.1,498.8,287.1,498.8,287.1C498.9,287.1,498.9,287.1,498.8,287.1z"/>
			</g>
		</g>
	</g>
	<g>
		<g>
			<path class="st1" d="M984.7,583c0,0-6.5,6.8-13.1,8.3c-6.6,1.4-11.2,3.3-11.3,7.2c0,3.9,19,6.5,26.6,2.6
				c11.3-5.9,12.5-4.1,13.7-7.1c1.3-3-1.5-10.9-1.4-11.8C999.2,581,984.7,583,984.7,583z"/>
		</g>
		<g>
			<path class="st2" d="M985.4,579.7c0,0-0.9,3.2-0.7,3.3c0.1,0.1,14.9,1.7,14.5-0.8c-0.4-2.1-0.9-4.4-0.9-4.4L985.4,579.7z"/>
		</g>
		<g>
			<path class="st1" d="M1058.3,584.8c0,0-4.8,6.7-11.2,8.2c-6.3,1.5-10.4,4.4-10.7,8.2c-0.3,3.8,14.9,8.8,25.6,2.1
				c7-4.4,9.6-4.2,11.1-7c1.4-2.8-0.7-10.6-0.6-11.6C1072.6,583.7,1058.3,584.8,1058.3,584.8z"/>
		</g>
		<g>
			<path class="st2" d="M1058.5,581.5c0,0-0.3,3.2-0.2,3.3c0.1,0.1,14.2,2.6,14.1,0c-0.1-2-0.9-4.5-0.9-4.5L1058.5,581.5z"/>
		</g>
		<g>
			<path class="st0" d="M1000.3,387.1c0,0-6.8,49.7-9.6,66.6c-3.3,19.7-4.4,35.9-5.3,46.1c-1.1,12.8-0.5,78.3-1.3,82.1
				c-0.8,3.7,16.2,1.8,16.2,1.8s12.5-85.4,15.9-99c3.2-12.7,11.9-65,14.8-61.6c2.9,3.5,12.3,63.1,14.5,73.1
				c2.1,10,10.8,88.8,10.8,88.8s14.4,3.1,18.4,0c0,0-0.9-70.3-2.3-89c-0.5-7.2,4.5-85.6-7.6-117.3
				C1058.4,361.8,1000.3,387.1,1000.3,387.1z"/>
		</g>
		<path class="st3" d="M999.7,389.4l-0.8,7.5c0,0,20.9,8.5,71.7,8.5v-8.5L999.7,389.4z"/>
		<g>
			<g>
				<g>
					<path class="st4" d="M941.2,295.4c0,0-3,6.7-4.8,7.1c-1.8,0.4-3.9,2.7-5.5,3.3c-1.5,0.7-6.4,1.1-7.7,2.3
						c-0.5,0.5-2.6,5-3.8,5.9c-1.2,0.9-3.8,2.6-3,3.6c0.8,1,3.6,0.2,3.6,0.2s-1,0.9-0.6,2c0.9,2.2,2.3,2.3,2.3,2.3s-0.5,1.6,0.1,2.4
						c1.3,1.8,2.7,1.8,2.7,1.8s0.1,1.3,1.3,2.2c1.4,1.3,3.2,0.5,3.2,0.5s1.4,2,2.8,1.6c1.3-0.4,2.1-1.4,3.1-2c1-0.6,7.6-8.2,10-15.4
						s6.7-13,6.7-13L941.2,295.4z"/>
				</g>
			</g>
		</g>
		<g>
			<path class="st5" d="M942.6,329.4c0,0,23.6,10.7,32,8.7c3.9-1,9-6.3,13.8-12.6c1.6-2.1,3.2-4.2,4.7-6.4c0,0,0,0,0,0
				c6-8.6,10.6-16.8,10.6-16.8s17.6-20.6,3.5-29.8c0,0-5.1-1.9-9.8,3.1c-4.7,5-10.2,15.6-11.5,18.3c-1.2,2.7-18.5,27.6-19.4,28.2
				c-0.9,0.6-8.5-1.4-14.5-1.9c-9.9-0.8-7.9-1.2-7.9-1.2L942.6,329.4z"/>
		</g>
		<path class="st5" d="M1020.4,267.8c0,0-18.1,3.7-20.3,5.7c-2.3,2-6.5,21.9-6.7,27.4c-0.2,5.5,2.2,28.6,4.5,37.2
			c2.3,8.6-3.1,45.2,1.3,51.2c0,0,37.4,12,73.2,7.3c0,0-7.7-34.6-6.3-46.3c1.8-15.1,6.3-49.9,6.3-49.9s-4.8-23.4-8-26.1
			s-25.4-7.1-25.4-7.1L1020.4,267.8z"/>
		<path class="st6" d="M1060.8,315c0,0,3.4,22.3,3.2,23.7C1063.7,340.1,1079.4,334.2,1060.8,315z"/>
		<g>
			<path class="st7" d="M1139.8,437.7l15.7-26.1c2.7-4.4,1.2-10.2-3.2-12.8l-39.4-23.8c-4.4-2.7-10.2-1.2-12.8,3.2l-15.7,26.1
				c-2.7,4.4-1.2,10.2,3.2,12.8l39.4,23.8C1131.3,443.5,1137.1,442.1,1139.8,437.7z"/>
			
				<rect x="957.9" y="169" transform="matrix(-0.5161 0.8565 -0.8565 -0.5161 1771.5521 -348.5322)" class="st8" width="52.8" height="314.4"/>
			
				<rect x="984.5" y="153.9" transform="matrix(0.5161 -0.8565 0.8565 0.5161 214.2027 1001.3661)" class="st9" width="17.6" height="314.4"/>
			
				<rect x="975.4" y="169" transform="matrix(-0.5161 0.8566 -0.8566 -0.5161 1771.5425 -348.5436)" class="st10" width="17.6" height="314.4"/>
			
				<rect x="966.4" y="184" transform="matrix(-0.5161 0.8565 -0.8565 -0.5161 1770.6957 -317.9255)" class="st8" width="17.6" height="314.4"/>
			<polygon class="st11" points="836,267.6 863.2,222.4 802.1,210.1 786.3,206.9 796.5,219.4 			"/>
			<path class="st12" d="M854.1,237.5c4,2.4,9.3,1,11.8-3.1c2.5-4.2,1.3-9.5-2.8-11.9L854.1,237.5z"/>
			<path class="st13" d="M845,252.6c4,2.4,9.3,1,11.8-3.1c2.5-4.2,1.3-9.5-2.8-11.9L845,252.6z"/>
			<path class="st11" d="M836,267.6c4,2.4,9.3,1,11.8-3.1c2.5-4.2,1.3-9.5-2.8-11.9L836,267.6z"/>
			
				<rect x="1120.2" y="383.2" transform="matrix(0.5161 -0.8566 0.8566 0.5161 209.8535 1157.1261)" class="st14" width="17.6" height="19.3"/>
			
				<rect x="1111.1" y="398.2" transform="matrix(-0.5161 0.8565 -0.8565 -0.5161 2047.2291 -340.8016)" class="st15" width="17.6" height="19.3"/>
			
				<rect x="1102" y="413.3" transform="matrix(-0.5161 0.8566 -0.8566 -0.5161 2046.3533 -310.2193)" class="st16" width="17.6" height="19.3"/>
			<polygon class="st12" points="854.1,237.5 786.3,206.9 863.2,222.4 			"/>
			<polygon class="st13" points="845,252.6 786.3,206.9 854.1,237.5 			"/>
			<polygon class="st11" points="845,252.6 786.3,206.9 836,267.6 			"/>
			<polygon class="st8" points="796.5,219.4 802.1,210.1 786.3,206.9 			"/>
		</g>
		<g>
			<g>
				<g>
					<g>
						<g>
							<path class="st4" d="M1023.6,389.9c0,0,1.7-0.1,2.4-0.6c0,0,1.2-0.9,2.1-1.4c0.3-0.2,0.5-0.3,0.7-0.4
								c0.7-0.3,2.4-0.8,3.9-2.1c1.5-1.3,6.7-8.5,6.7-8.5l-3.1-3.9l-2.4-4.1c0,0-12,1.9-13.6,2.9c-0.2,0.1-0.3,0.2-0.4,0.3
								c-1.2,1-1.7,2.3-2.3,2.8c-0.2,0.2-2.2,2.5-2,3.5c0.2,1.3,0.9,2,1.7,2.4c0,0,0.5,2.4,1.8,3.5c0,0,0.4,2.3,2.4,3.1
								C1021.6,387.4,1022.3,389.7,1023.6,389.9z"/>
						</g>
					</g>
				</g>
			</g>
		</g>
		<path class="st5" d="M1054.5,273.7c-2.4,0.9-4.9,6.7-3,17.9c2,12.1,6,17.3,7.6,20.1c1.6,2.8,10.4,20.3,8.8,22.6
			c-1.6,2.3-16.6,17.1-17.4,18.3c-0.9,1.2-17.6,16.4-17.6,16.4l8.5,11.9c0,0,36.1-28.2,39-31.1c2.8-2.8,11.2-8.7,8.1-18.6
			c-3.2-10-8.9-33.4-9.9-35.3C1077.6,294.2,1070.2,267.7,1054.5,273.7z"/>
		<g>
			<g>
				<path class="st4" d="M920.3,317.1c0,0,5.8-6.5,8.7-6.3c2.9,0.1,0.9,2.6,0.9,2.6s1.9-2.4,4-1.2c2.1,1.3-0.4,4-0.4,4
					s1.9-1.5,3.5,0.6c1.5,2-1,3.9-1,3.9s3.8-0.6,3,2.6c-1.4,5.3-6.9,7.8-6.9,7.8s-1.8,0.7-3.1-1.4c0,0-3.5,1.4-4.5-2.8
					c0,0-4.2-1-2.9-4.4C921.5,322.4,916.9,320.8,920.3,317.1z"/>
			</g>
		</g>
		<path class="st3" d="M1012.2,269.6c0,0-1.1-5,14.4-6.1c15.5-1.1,26,2.3,26.3,6.8c0.3,4.5-39.3,15.6-39.3,15.6L1012.2,269.6z"/>
		<path class="st4" d="M1027.9,211.7c0,0-21.8-8.1-20.4,20.9c1.4,29,6.5,31.9,20.8,27.9c14.3-4,15.5-22.3,17.4-31.1
			C1047.5,220.6,1035,213,1027.9,211.7z"/>
		<path class="st4" d="M1016.8,272.3c0,0,5.2,2.3,22.2-5.2c0,0-0.5-11.7,2.9-22.6c3.3-10.9-22.8,14.5-22.8,14.5
			c0.3,0.2,0.3,1.3,0.2,2.8c-0.1,1.3-0.4,2.9-0.8,4.5C1017.4,270.1,1017.7,269.4,1016.8,272.3z"/>
		<path class="st17" d="M1042.6,243.7c0,0,0.1-7.7-3.2-8.5c-3.2-0.7-4.9,3.8-4.9,3.8l-2.6-0.1c0,0,2.3-7.8-0.8-9.6
			c-3.1-1.8-21.4-0.2-23.7-2.9c-2.3-2.6,1-18.3,6-19.9c5-1.5,18.7-4.7,27.4,3.1c0,0,7.5,3.2,7.8,9.4
			C1049,225.1,1045.3,239.5,1042.6,243.7z"/>
		<path class="st18" d="M1018.4,266.4c16.9-2.8,19.4-12.4,19.5-12.6c-6.6,8.5-18.6,8.1-18.6,8.1
			C1019.1,263.2,1018.8,264.8,1018.4,266.4z"/>
		<path class="st4" d="M1035.8,232c1-2.6,6.4-2.2,5.8,1.8c-0.6,4-5.1,10.3-6.9,9.1C1033,241.8,1034.5,235.5,1035.8,232z"/>
	</g>
	<g>
		<path class="st19" d="M580.4,462c-1.8,6.2-3.5,74.3-3.8,85.8v0c0,0.8,0,1.3,0,1.5c0,0.9-0.4,1.7-1,2.3c-0.6,0.7-1.5,1.2-2.5,1.5
			c-1.8,0.6-3.8,0.5-5.2-0.5c-0.6-0.4-1.2-1.7-1.8-3.5c-2.4-7.3-4.7-23.6-5.8-30.2c-1.4-8.3-5.8-30.6-1-53.1
			c3-13.7-6.1-21.2-9.6-26.8c-3.5-5.6-20.3-27.3-22.9-31.9c-2.7-4.8,34.3-14.5,34.3-14.5s16.4,40.3,18.8,44.7
			C582.4,441.7,582.6,454.5,580.4,462z"/>
		<path class="st19" d="M509.5,413.2c0,0-10,26.3-11.1,30.1c-1.1,3.8-3.2,17.3-4.7,22.1c-1.3,4.1-5,7.3-6.5,13.1
			c-1.5,5.6-15.6,55.5-17.1,65.6c0,0.2-0.1,0.4-0.1,0.5c0,0,0,0,0,0c-0.2,1.8-0.7,3-1.3,3.9c-1.6,2-4.1,1.5-6,0.5
			c-1.2-0.6-2.1-1.4-2.4-1.8c-0.1-0.2-0.1-0.9-0.1-2c0-0.2,0-0.5,0-0.8c0.2-8.9,2.2-36.1,2.5-41.9c0.4-6.3,6.4-44.3,9.2-50.1
			c2.7-5.8,3.2-52.8,3.2-52.8S499.5,400.6,509.5,413.2z"/>
		<path class="st20" d="M545.7,356.1c0,0,0.6,5.2,1.9,7.1c1.4,2,13.7,29.9,15.9,35c0,0-9.4,2.2-30.9,18.4c0,0-10.7-17.3-11.9-18.7
			c-1.2-1.4-11.2,18.3-12.4,18.4c0,0-33.5-4.2-33.3-6.3c0,0,0.8-30,0.9-35.2c0-4.9,8.3-23.6,18.9-29.3
			C498.8,343.5,545.7,356.1,545.7,356.1z"/>
		<path class="st19" d="M597.9,346.2c0,0,14.8,20.4,16.5,21.2c1.7,0.9-4.1,5.7-5.7,4.5c-1.6-1.2-19.8-17.1-19.8-17.1L597.9,346.2z"
			/>
		<path class="st19" d="M444.8,325.3c0,0-29.6,31.1-29.7,32.5c-0.1,1.4,4.5,6.9,3.7,9.1c-0.7,2.1-3,4.1-5.2,4.3
			c-2.3,0.2-6.3,5.2-9.6,4.9c-3.2-0.3-3.2-3.5-3.5-4c-0.3-0.4-0.5-3-2.1-4.9c-1.6-1.9-0.4-4.2,4.6-8.8c4.9-4.6,26.4-41.1,26.4-41.1
			S443.5,315,444.8,325.3z"/>
		<path class="st21" d="M557.4,234.5c0,0,6.8-9.7,5.3-15.9c-1.5-6.2-2.8-4.9-2.7-8.5c0.1-3.5-1.3-12.5-9.4-13.6
			c-8.1-1.1-12.4-6.7-25.4-0.6c-13,6.1-9,19.1-19.6,21.7c-10.6,2.7-36.5-5-39.6,8.5c-3.1,13.5,11.7,16.1,19.1,10.5
			c7.4-5.6,10.9,5.1,3.8,8.1c-7.1,3-0.1,15.2,7.2,16.5c7.3,1.3,4.8,9.2,4.8,9.2s34.7-11.2,36.3-16.8
			C538.8,248.1,557.4,234.5,557.4,234.5z"/>
		<path class="st19" d="M557.3,210.3c0.1,0.3,5.2,13-1.1,27.1c-6.3,14.1-13.4,14.1-20.3,9.7c-6.9-4.3-9.7-11.2-8.8-23.4
			c1-12.2,6.5-22.3,17.1-19.2C554.9,207.7,557.3,210.3,557.3,210.3z"/>
		<path class="st22" d="M597.9,346.2c0,0-3.7,5.7-9,8.7c0,0-14.8-12.5-18.7-19c-1.9-3.1-4.8-9.2-7.2-14.7c0,0,0,0,0,0
			c-2.5-5.5-4.5-10.6-4.8-11.8c0,0,0,0,0,0c0-0.1,0-0.2,0-0.2c0-0.9-4.3,6.5-5.4,9.5c-2.2,5.9-7.4,12.5-6.5,18.8
			c0.9,6.3,5,31.3,5,31.3s-38.8,6.1-71.3-12c0,0,8.2-13.5,11-23.2c2.8-9.7,7.8-18.7,6.6-26.6c-1.2-7.8-3.4-19.2-3.2-22.6
			c0,0-16.8,11.5-23.8,15.3c-6.9,3.8-26.6,29.2-31.5,31.4c0,0-3.7-9.6-13.3-8.3c0,0,10-19.3,23.4-28.8c13.3-9.4,34.7-28.3,48-31.1
			c13.3-2.8,30.1-6.3,30.1-6.3l15.4,1.3c0,0,14.3,10.9,17.7,13.4c3.4,2.5,7.7,8.3,8.7,12.1c1,3.8,11,38.4,13.9,41.3
			C585.6,327.9,596.8,342.8,597.9,346.2z"/>
		<path class="st19" d="M554.2,267.1c0,0-22.1,11.5-39.8-7.7c0,0,11.3-3.1,11.4-3.4c0.1-0.4,5.1-10,4.1-17.1
			c-1-7.2,13.9,8.7,13.9,8.7s-0.2,0.9-0.4,2.2c-0.2,1.1-0.4,2.4-0.6,3.7c-0.2,1.8-0.4,3.4-0.1,4
			C543.2,258.7,554.2,267.1,554.2,267.1z"/>
		<path class="st21" d="M546.2,212.1c0,0,4.4,9.8,8.6,13.1c4.1,3.3,3.2,7.5,3.2,7.5s9.3-18.2-6.4-30.6
			c-15.7-12.5-27.3,14.1-27.2,22.4c0.2,8.4,1,6.7,1,6.7S546.7,220.4,546.2,212.1z"/>
		<g>
			<g>
				<path class="st19" d="M610.6,363.1c0,0,2.7,3.6,4,3.6c1.3,0.1,3.2,1.2,4.4,1.4c1.2,0.3,4.7-0.1,5.7,0.7c0.4,0.3,2.3,3.2,3.3,3.7
					c1,0.5,3,1.3,2.5,2.1c-0.5,0.8-2.5,0.6-2.5,0.6s0.8,0.5,0.6,1.4c-0.4,1.6-1.4,1.9-1.4,1.9s0.5,1.1,0.2,1.7
					c-0.7,1.4-1.7,1.6-1.7,1.6s0,0.9-0.7,1.7c-0.9,1.1-2.3,0.8-2.3,0.8s-0.8,1.6-1.8,1.5c-1-0.1-1.6-0.7-2.4-1
					c-0.7-0.3-6.3-4.8-8.7-9.5c-2.5-4.7-6-7.5-6-7.5L610.6,363.1z"/>
			</g>
			<path class="st23" d="M627.7,374.7c0,0-4.8-3.8-6.8-3.3c-2.1,0.4-0.4,1.9-0.4,1.9s-1.6-1.5-2.9-0.3c-1.3,1.2,0.7,2.8,0.7,2.8
				s-1.5-0.8-2.4,0.8s1.1,2.6,1.1,2.6s-2.8,0.1-1.9,2.2c1.5,3.5,5.9,4.5,5.9,4.5s1.1,0.1,1.8-1.5c0,0,2.6,0.5,2.9-2.5
				c0,0,2.9-1.2,1.6-3.3C627.2,378.5,630.2,377.1,627.7,374.7z"/>
		</g>
		<path class="st24" d="M532.7,418.4c0,0,27.1-17.5,32.5-18c0,0-2.6-7.9-3.3-7.9c-0.7,0-26.5,11.1-33.2,19.2L532.7,418.4z"/>
		<path class="st24" d="M508.5,418.4l4.1-6.5c0,0-14.6-4.6-38.5-7.6v7.5C474.1,411.8,495.8,418.3,508.5,418.4z"/>
		<path class="st25" d="M543.4,249.6c-0.2,1.1-0.4,2.4-0.6,3.7c-8.8-1.9-11.3-10.1-11.3-10.1C538.1,250.1,543.4,249.6,543.4,249.6z"
			/>
		<path class="st22" d="M576.6,547.8v3c0,0-0.4,0.3-1,0.8c-0.6,0.5-1.5,1.1-2.5,1.5c-1.8,0.6-3.8,0.5-5.2-0.5
			c-0.6-0.4-1.2-1.7-1.8-3.5C567.1,549.2,574.7,548.8,576.6,547.8z"/>
		<path class="st22" d="M470,544.6C470,544.7,470,544.7,470,544.6c-0.2,1.9-0.7,3.1-1.4,3.9c-1.6,2-4.1,1.5-6,0.5
			c-1.2-0.6-2.1-1.4-2.4-1.8c-0.1-0.2-0.1-0.9-0.1-2C462.6,545,468.2,544.4,470,544.6z"/>
		<path class="st26" d="M569.5,553.1c0,0,3.3-2.9,4.9-3.3c1.6-0.3,3.2-0.3,3.9,0.5c0.7,0.8,2.7,3.9,3.8,4.8c1.1,1,8.8,8.4,10.6,8.9
			c1.8,0.5,9.7,0.1,9.3,4.7c-0.4,4.6-6.8,6.6-18.3,5.5c-11.4-1-10-3.7-16.4-5.1c-6.4-1.4-6.8-4.6-5.7-8.5c1.1-3.9,5.7-7.8,5.2-8.8
			C566.2,550.8,569.5,553.1,569.5,553.1z"/>
		<path class="st26" d="M462.7,548.8c0,0,3.6-1.7,6.1-1.6c2.4,0.1,2.2,1.6,2.8,2.5c0.6,0.9,6.3,9.6,7.9,11.1
			c1.6,1.6,7.1,3.2,6.3,7.1c-0.8,3.9-7.8,5.5-16.5,4.3c-8.7-1.1-12.9-9.2-14.3-11c-1.4-1.8,3.3-13.5,4.7-14.4
			C461.1,546.1,462.7,548.8,462.7,548.8z"/>
		<path class="st27" d="M562.9,321.1c-2.5-5.5-4.5-10.6-4.8-11.8c0,0,0,0,0,0c-0.1-0.1-0.1-0.3-0.1-0.3s2.1-10.4,1.4-15.7
			C559.3,293.4,562.9,309.8,562.9,321.1z"/>
		<g>
			
				<linearGradient id="SVGID_1_" gradientUnits="userSpaceOnUse" x1="325.2684" y1="213.884" x2="811.2097" y2="325.3579" gradientTransform="matrix(0.9993 3.640000e-02 -3.640000e-02 0.9993 -167.8744 85.1399)">
				<stop  offset="2.698000e-05" style="stop-color:#D17D5C"/>
				<stop  offset="0.9948" style="stop-color:#DB7C2E"/>
			</linearGradient>
			<path class="st28" d="M710.2,476.5c0,0-224.4,27.1-513.6-104.5c313-55.1,523.5,27.2,523.5,27.2L710.2,476.5z"/>
			<linearGradient id="SVGID_2_" gradientUnits="userSpaceOnUse" x1="827.2887" y1="363.6448" x2="805.0554" y2="497.0446">
				<stop  offset="0" style="stop-color:#5E5A58"/>
				<stop  offset="1" style="stop-color:#30221B"/>
			</linearGradient>
			<path class="st29" d="M899.1,442.2c-3,7.7-7.6,14.7-13.4,21c-45.8,50-166,56.1-155.9-23.5c1.8-14.4,6.6-25.2,13.4-33c0,0,0,0,0,0
				c28.7-33,93.8-11.9,127.5,26.9C886.6,451.9,899.1,442.2,899.1,442.2z"/>
			
				<linearGradient id="SVGID_3_" gradientUnits="userSpaceOnUse" x1="-7494.6406" y1="-9215.3408" x2="-7494.6406" y2="-9314.2129" gradientTransform="matrix(0.126 -0.992 -0.992 -0.126 -7502.2378 -8160.4683)">
				<stop  offset="0" style="stop-color:#FFFFFF"/>
				<stop  offset="0.9948" style="stop-color:#54B3FF"/>
			</linearGradient>
			<polygon class="st30" points="720,399.2 743.2,406.7 734.8,472.8 710.2,476.5 			"/>
		</g>
		<path class="st19" d="M419.8,352.1c0,0-3.6,4-3.2,7.6c0.5,3.7-2.1,9.8-3.4,11.5c-1.3,1.7-10.4,15.5-11.8,16.1
			c-1.4,0.6-1.6-2.5-0.7-3.8c0.9-1.3,8.1-13.1,8.1-13.1s-9.3,13.6-10.7,13.9c-1.4,0.3-2.9-1-2.1-3.3c0,0-3.5-0.7-1.4-4.2l4.2-6.9
			c0,0-2.8,3.2-2.5-0.1c0.1-1.8,5.8-9,6.5-10.8c0.7-1.8,5.5-7.4,5.5-7.4L419.8,352.1z"/>
	</g>
	<g>
		<path class="st31" d="M190.1,339.2c0,0-0.7-0.5,1.2-2.3c1.9-1.9,7.8-8.4,8.4-7.3C200.2,330.8,200.9,338.5,190.1,339.2z"/>
		<path class="st32" d="M200.3,332.1c0,0-3-2.1-3.3-3.7c-0.2-1.6,0.4-6.1-0.8-8.1c-1.2-2-3.7-5.6-5.1-6c-1.5-0.4-13.7,1.6-13,3
			c0.7,1.4,5.3,3.2,8.9,1.7c3.7-1.5,3.4,1.5,3.4,1.5s-8.7,8.2-7.7,10.4c2.7,5.6,11.1,8.8,11.1,8.8S200.9,337.2,200.3,332.1z"/>
		<path class="st32" d="M355.9,241.7c0,0-3.3-4.4-6.2-5.1c-2.9-0.7-8.2-1-9.5-0.8c-1.2,0.2-6.4,0.1-4.9-1.5
			c1.5-1.5,11.4-3.9,13.3-3.4c1.9,0.5-1.2-6.6-0.6-8.3c0.6-1.7,14.5-5.6,16-0.5c1.5,5.1-0.8,11.4-0.4,12.3c0.5,0.8,0.9,1.3,0.9,1.3
			L355.9,241.7z"/>
		<path class="st32" d="M348.1,223.9c0,0-3.3-15.9-2.5-17.1c0.8-1.2,1.8-1.3,2.2,0.1c0.4,1.5,3.7,15.3,3.7,15.3s-0.3-19.4,0.1-20.5
			c0.2-0.7,2.2-1,2.5-0.2c0.3,0.8,1.8,20,1.8,20s-0.2-18.1,0.5-19c0.6-0.8,2.4-0.7,2.6,0.7c0.1,1.3,1.4,18.1,1.4,18.1
			s0.9-13,1.9-13.7c0.8-0.5,2.3-0.6,2,2.8s-0.1,11.5-0.1,11.5L348.1,223.9z"/>
		<g>
			
				<linearGradient id="SVGID_4_" gradientUnits="userSpaceOnUse" x1="-2436.3943" y1="-9200.708" x2="-1950.4618" y2="-9089.2363" gradientTransform="matrix(0.8746 -0.4848 -0.4848 -0.8746 -2343.1868 -8749.3086)">
				<stop  offset="2.698000e-05" style="stop-color:#D1B05B"/>
				<stop  offset="0.9948" style="stop-color:#DBBF2D"/>
			</linearGradient>
			<path class="st33" d="M411.5,77.1c0,0-212.3,77.4-410.7,325.7c304.1-92.5,454.5-261.2,454.5-261.2L411.5,77.1z"/>
			<linearGradient id="SVGID_5_" gradientUnits="userSpaceOnUse" x1="529.2734" y1="-39.6981" x2="502.2552" y2="122.4118">
				<stop  offset="0" style="stop-color:#5E5A58"/>
				<stop  offset="1" style="stop-color:#30221B"/>
			</linearGradient>
			<path class="st34" d="M595.4,22.2c-0.8-0.1-15.7-2.4-21.4,20.4c-15.5,61.7-86,120.9-128.4,58.4c-7.6-11.2-10.8-21.9-10.5-31.8
				c1.3-52.7,99.4-84,150.3-54.3C588.9,17,592.3,19.4,595.4,22.2z"/>
			
				<linearGradient id="SVGID_6_" gradientUnits="userSpaceOnUse" x1="1632.8516" y1="-5619.5103" x2="1632.8516" y2="-5718.3677" gradientTransform="matrix(0.5614 0.8276 -0.8276 0.5614 -5150.7832 1924.111)">
				<stop  offset="0" style="stop-color:#FFFFFF"/>
				<stop  offset="0.9948" style="stop-color:#54B3FF"/>
			</linearGradient>
			<polygon class="st35" points="455.2,141.6 472.5,124.4 435,69.3 411.5,77.1 			"/>
		</g>
		<path class="st26" d="M232.4,612.4c0,0-6.9,3.3-9.7,5.6s-15.4,1.1-18.1,7.2c-2.7,6.1,9.2,9.2,22.1,5.9c12.9-3.3,15.1-5.6,19.4-7.4
			c4.6-1.9-0.3-12-0.3-12L232.4,612.4z"/>
		<path class="st26" d="M363.3,596.4c0,0-2.5,2.8-3.3,7.4c-0.8,4.6-12.3,15.4-11.9,19.1c0.5,3.7,2.7,8.4,14.2,2.3
			c11.5-6,13.1-18.1,15.2-21.1c2-3.1,1.6-9.9-3.1-14.2C369.8,585.4,363.3,596.4,363.3,596.4z"/>
		<path class="st26" d="M268.5,439.3c0,0-34,55.9-35.2,63.8c-1.2,7.8-2.5,91.9-3.9,97.4c-1.4,5.5,2.1,8.1,2.1,8.1s11.3,3.9,14.7-0.5
			c3.4-4.4,2.4-7.1,2.4-7.1s11.2-67.6,12.7-78.7c1.4-11.1,37.7-58.6,40.9-54.3c3.3,4.3,9.3,45.1,12,51c2.7,5.9,43.5,74.8,46.7,74.8
			c3.1,0,14.9-1.6,13.1-9.7c-1.8-8.1-28.4-67.9-28.4-74.7s-8.3-70.3-10.4-78.8C333.1,422.2,268.5,439.3,268.5,439.3z"/>
		<path class="st36" d="M298.5,315c0,0-22.7,5.9-27.4,9.3c-4.7,3.4-35.1,30.1-37.3,30.2c-2.2,0.1-34.1-24.8-34.1-24.8
			s0.1,6.8-9.6,9.6c0,0,35.4,37.1,42.2,36.8c6.8-0.3,38.4-24.3,38.4-24.3s-0.5,14.1,2.4,22.2c2.9,8.1,3,23.5,1,30.7
			c-2,7.2-9.5,34.4-9.5,34.4s55.8,13.2,72.4,1.3c0,0-1.4-40.8-1.8-47.5c-0.4-6.7,10.2-43.5,12.9-48c2.7-4.4,43.5-52.6,43.3-59.4
			c-0.3-6.8-25.5-52-25.5-52s-7.8,3.1-13.1,8.1c0,0,18.9,37.8,16.9,43.7c-2,5.8-25.2,29.1-29.5,31.1c-4.3,2-19.5,1.2-19.5,1.2
			L298.5,315z"/>
		<path class="st32" d="M320.8,317.6c0,0-18.6,21.6-20.8,20.7c-2.3-0.9-1.4-23.3-1.4-23.3s0.4-1.3,0.6-3.3c0.3-1.9,0.5-4.3,0.2-6.7
			c-0.1-1,1.1-2.4,3.1-3.8c7.2-5.2,24.7-12,24.7-12S319,306.9,320.8,317.6z"/>
		<path class="st23" d="M232.4,613.1l-0.3-3.5l14-1l-0.4,3.6c0,0-0.3,2-7,2.4C232.1,615,232.4,613.1,232.4,613.1z"/>
		<path class="st23" d="M361,593.8c0,0,1.1,4.1,1.4,5c0.3,0.8,7.1,1.6,9.5-2.2c2.4-3.8,2.6-4.5,2.3-6.3c-0.2-1.2-0.9-2.5-0.9-2.5
			L361,593.8z"/>
		<path class="st37" d="M228.6,608.6c0,0,8.4,3.7,19.7,1c0,0,2-4.7,0.4-8.6c0,0-7.7,3.4-19-1.7C229.6,599.4,227.7,603.4,228.6,608.6
			z"/>
		<g>
			<g>
				<path class="st38" d="M326.4,447.2c-0.2-2.1-0.3-2.9-0.3-2.9l1-0.2c0,0,0.1,0.8,0.3,3L326.4,447.2z"/>
			</g>
			<g>
				<path class="st38" d="M366.8,577.9c-1-1.8-2.1-3.9-3.3-6.1l0.9-0.5c1.2,2.2,2.3,4.3,3.3,6.1L366.8,577.9z M360.3,565.7
					c-1-2-2.1-4-3.2-6.1l0.9-0.5c1.1,2.1,2.2,4.1,3.2,6.1L360.3,565.7z M353.9,553.4c-1.1-2.1-2.1-4.1-3.2-6.2l0.9-0.5
					c1.1,2,2.1,4.1,3.2,6.1L353.9,553.4z M347.5,541.1c-1.1-2.2-2.2-4.3-3.1-6.2l0.9-0.4c1,1.9,2,4,3.1,6.2L347.5,541.1z
					 M341.3,528.7c-1.2-2.5-2.2-4.6-3-6.3l0.9-0.4c0.8,1.7,1.8,3.8,2.9,6.3L341.3,528.7z M335.9,515.8c-0.5-1.8-1-4.1-1.5-6.8l1-0.2
					c0.5,2.6,1,4.9,1.5,6.7L335.9,515.8z M333.1,502.2c-0.4-2.1-0.7-4.4-1.1-6.9l1-0.1c0.4,2.4,0.7,4.7,1.1,6.8L333.1,502.2z
					 M331.1,488.5c-0.3-2.2-0.6-4.5-0.9-6.9l1-0.1c0.3,2.4,0.6,4.7,0.9,6.9L331.1,488.5z M329.3,474.8c-0.3-2.2-0.5-4.5-0.8-6.9
					l1-0.1c0.3,2.3,0.5,4.7,0.8,6.9L329.3,474.8z M327.8,461c-0.2-2.3-0.5-4.6-0.7-6.9l1-0.1c0.2,2.3,0.5,4.6,0.7,6.9L327.8,461z"/>
			</g>
			<g>
				<path class="st38" d="M371.6,586.8c0,0-0.6-1.1-1.6-3l0.9-0.5c1,1.9,1.6,3,1.6,3L371.6,586.8z"/>
			</g>
		</g>
		<path class="st37" d="M358.2,594.2c0,0,15.4,0.1,17.8-9c0,0-1.9-4.9-3.6-6.3c0,0-2.6,7.5-16.8,8.2
			C355.5,587.1,356.5,591.7,358.2,594.2z"/>
		<path class="st39" d="M318.9,301.6c0,0-7.2,8-19.7,10.1c0.3-1.9,0.5-4.3,0.2-6.7c-0.1-1,1.1-2.4,3.1-3.8L318.9,301.6z"/>
		<path class="st32" d="M299.7,261.7c0,0-4,6.1-5.8,15.6c-1.7,9.5-1,27.5,6.6,27.9c7.6,0.4,17-1.4,19.6-4.9
			c2.6-3.6,12.2-18.1,13.1-28C334.1,262.5,312.5,243.3,299.7,261.7z"/>
		<path class="st40" d="M327.7,288.1c0,0,6.2-8.7,7.8-16.3c0.9-4.5,1.9-9.2-1.4-11.7c-3.2-2.5-5.9-2-5.9-2s-11.9-11.8-21.5-6.1
			c-9.6,5.7-8.8,13.1-8.8,13.1s8.6-6.6,21.4-0.1c0,0,3.7,5.8-1.4,14.4l6.5-1C324.4,278.3,329,282.8,327.7,288.1z"/>
		<path class="st41" d="M315.6,278.8c-0.6,3.1-3.2,5.2-5.9,4.7c-2.7-0.5-4.4-3.4-3.8-6.5c0.6-3.1,3.2-5.2,5.9-4.7
			C314.5,272.8,316.2,275.7,315.6,278.8z"/>
		<path class="st41" d="M301.3,277.5c-0.6,3.1-3.2,5.2-5.9,4.7c-2.7-0.5-4.4-3.4-3.8-6.5c0.6-3.1,3.2-5.2,5.9-4.7
			S301.9,274.4,301.3,277.5z"/>
		<path class="st41" d="M315,278.8c0,0,13.3-3,14.7,1.8c0,0-0.5,3.1-1.1,2.2c-0.7-1,1.4-3.4-3-3.7c-4.4-0.3-10.9,1-10.9,1
			S313.1,279.7,315,278.8z"/>
		<path class="st41" d="M306.8,277.9c0,0-0.5-0.4-5.4-0.6c-5-0.3-0.4,1.4-0.4,1.4s4.4,0.1,5.8,0.6
			C308.1,279.7,306.8,277.9,306.8,277.9z"/>
		<path class="st32" d="M321.4,279c0.6-2.7,6.7-4.4,7.1-1.1c0.4,3.2-3.1,10.8-6.3,10.5C319.1,288.2,321.4,279,321.4,279z"/>
	</g>
	<linearGradient id="SVGID_7_" gradientUnits="userSpaceOnUse" x1="821.1489" y1="391.1843" x2="821.1489" y2="492.9556">
		<stop  offset="0" style="stop-color:#40D5E6"/>
		<stop  offset="1" style="stop-color:#5577FF"/>
	</linearGradient>
	<path class="st42" d="M899.1,440.6c-3,7.7-7.6,14.7-13.4,21c-53.7,23.1-49.3-31.1-68.5-38.5c-19.2-7.4-12.5,25.6-25.3,25.3
		c-12.8-0.3,4.8-25-12.5-39c-17-13.8-35.6-4.6-36.2-4.3c28.7-33,93.8-11.9,127.5,26.9C886.6,450.3,899.1,440.6,899.1,440.6z"/>
	<linearGradient id="SVGID_8_" gradientUnits="userSpaceOnUse" x1="511.263" y1="134.4739" x2="511.263" y2="-16.3875">
		<stop  offset="0" style="stop-color:#40D5E6"/>
		<stop  offset="1" style="stop-color:#5577FF"/>
	</linearGradient>
	<path class="st43" d="M587.3,14.4c-15-5.4-39-1.1-45.9,11.7c-9,16.5-24.5,22.8-42.3,18.5c-17.7-4.4-19.2,9.7-15.8,18.2
		c3.4,8.5,1.7,18.7-8,14.6c-9.7-4.1,1.5-15.5-13.8-22.3c-15-6.6-25.8,13.5-26.3,14.4C436.6,16.1,535.9-15.6,587.3,14.4z"/>
</g>
</svg>
