<?xml version="1.0" encoding="utf-8"?>
<!-- Generator: Adobe Illustrator 22.0.0, SVG Export Plug-In . SVG Version: 6.00 Build 0)  -->
<svg version="1.1" id="Camada_1" xmlns="http://www.w3.org/2000/svg" xmlns:xlink="http://www.w3.org/1999/xlink" x="0px" y="0px"
	 viewBox="0 0 456.1 405.8" style="enable-background:new 0 0 456.1 405.8;" xml:space="preserve">
<style type="text/css">
	.st0{opacity:0.6;fill:#ECBD99;}
	.st1{fill:#38415D;}
	.st2{opacity:0.43;fill:#38415D;}
	.st3{fill:#0BE4F4;}
	.st4{opacity:0.61;fill:#FFFFFF;}
	.st5{fill:none;stroke:#5E657C;stroke-width:4.1564;stroke-linecap:round;stroke-miterlimit:10;}
	.st6{opacity:0.21;fill:#38415D;}
	.st7{opacity:0.61;}
	.st8{fill:#FFFFFF;}
	.st9{fill:#402D22;}
	.st10{opacity:0.3;fill:#402D22;}
	.st11{fill:none;stroke:#402D22;stroke-width:11.9551;stroke-linecap:round;stroke-miterlimit:10;}
	.st12{fill:#533A2A;}
	.st13{fill:none;stroke:#533A2A;stroke-width:11.9551;stroke-linecap:round;stroke-miterlimit:10;}
	.st14{opacity:0.3;fill:#533A2A;}
	.st15{opacity:0.29;fill:#533A2A;}
	.st16{fill:#00D9D9;}
	.st17{opacity:0.32;fill:#606060;}
	.st18{opacity:0.3;fill:#606060;}
	.st19{fill:none;stroke:#533A2A;stroke-width:9.3173;stroke-miterlimit:10;}
	.st20{fill:#ECB446;}
	.st21{fill:#76D8D5;}
	.st22{opacity:0.51;fill:#ECB446;}
	.st23{opacity:0.45;fill:#0BE4F4;}
	.st24{opacity:0.42;fill:#ECB446;}
</style>
<g>
	<g>
		<polygon class="st0" points="185.1,382.3 10.3,381.2 29.3,362 164.9,362 		"/>
		<g>
			<path class="st1" d="M27.9,4.5l1.5,106.3c0,2.2,18.9,6.7,42.2,6.7c23.3,0,42.2-4.5,42.2-6.7l1.5-106.3H27.9z"/>
			<path class="st1" d="M115.3,10.1H27.7c-1.5,0-2.8-1.3-2.8-2.8l0,0c0-1.5,1.3-2.8,2.8-2.8h87.6c1.5,0,2.8,1.3,2.8,2.8l0,0
				C118.1,8.9,116.8,10.1,115.3,10.1z"/>
			<path class="st2" d="M58.4,93.7c-10.7,4.4-21.2,3.3-29.1,0.8v16.3c0,2.2,18.9,6.7,42.2,6.7c23.3,0,42.2-4.5,42.2-6.7l1-93.8
				C109,45.4,93.4,79.3,58.4,93.7z"/>
			<path class="st3" d="M60.5,4L60.5,4L39.7,4.1h-1.2l0,0c-2.1,0-3.8,1.7-3.8,3.8v8.9c0,1.2,0.9,2.4,2.1,2.6
				c1.6,0.3,2.9-0.9,2.9-2.5v-1.8c0-4.8,4.2-8.6,9-8.1c0.2,0,0.4,0,0.5,0.1c6.5,0.9,11.3,6.7,11.3,13.3c0,3.9,0,8,0,10.7
				c0,2.9,2.1,5.4,5,5.6c3,0.2,5.6-2.3,5.6-5.3l0-16.6c0-1.2,0.8-2.4,2-2.8c0.4-0.1,0.8-0.2,1.2-0.2c0.8,0,1.6,0.2,2.2,0.7
				c0.8,0.5,1.1,1.4,1.1,2.3v24.9c0,1.6,1.1,3,2.7,3.5l0,0c2.1,0.6,3.6,2.5,3.6,4.7c0,3.6,0,8.9,0,12.3c0,3.2,2.4,6.1,5.6,6.4
				c3.7,0.4,6.8-2.5,6.8-6.1V11.7c0-1.5,1.2-2.7,2.7-2.7l0,0c0.2,0,0.4,0,0.6,0c1.4,0.2,2.3,1.5,2.3,2.9c0,3.8,0,13.4,0,18.2
				c0,2.9,2.1,5.4,5,5.6c3,0.2,5.6-2.3,5.6-5.3V8.6c0-2.6-2.1-4.6-4.6-4.6L60.5,4z"/>
			<path class="st4" d="M87,63.4L87,63.4c-1.1,0-2-0.9-2-2l1.2-24.8l2.7,24.8C88.9,62.6,88.1,63.4,87,63.4z"/>
			<path class="st4" d="M103.9,32.1L103.9,32.1c-0.5,0-1-0.4-1-1l0.6-12.4l1.4,12.4C104.9,31.6,104.4,32.1,103.9,32.1z"/>
			<path class="st4" d="M79.3,42.1L79.3,42.1c-0.6,0-1.1-0.5-1.1-1.1l0.6-13.7L80.4,41C80.4,41.6,79.9,42.1,79.3,42.1z"/>
			<path class="st4" d="M62.6,33.5L62.6,33.5c-0.6,0-1.1-0.5-1.1-1.1l0.6-13.7l1.5,13.7C63.6,33,63.2,33.5,62.6,33.5z"/>
			<path class="st4" d="M35.5,17.5L35.5,17.5c-0.3,0-0.5-0.2-0.5-0.5l0.3-6.9l0.8,6.9C36.1,17.3,35.8,17.5,35.5,17.5z"/>
			<path class="st1" d="M113.8,74.2c-1.9,3.9-4.3,7.5-7.1,10.8c-7.2,8.1-16.8,12.5-28.6,12.9c-17.3,0.7-31-4.1-40.7-14.4
				c-3.3-3.4-5.9-7.3-8-11.4v8c1.5,2.2,3.1,4.2,5,6.2c9.9,10.5,23.5,15.7,40.5,15.7c1.1,0,2.3,0,3.4-0.1
				c12.9-0.5,23.6-5.3,31.5-14.3c1.5-1.7,2.8-3.4,4-5.2V74.2z"/>
			<path class="st1" d="M111.9,25c0,1.1,0.8,2,1.9,2.1v-4.1C112.8,23,111.9,23.9,111.9,25z"/>
			<path class="st1" d="M29.4,26.7c0.5-0.4,0.8-1,0.8-1.7c0-0.7-0.3-1.3-0.8-1.7V26.7z"/>
			<path class="st5" d="M26.6,21.1h-7.9c0,0-7.4,77.6,59.4,75c51.9-2.1,46.1-75,46.1-75h-7.3"/>
			<polygon class="st6" points="115.2,11.2 115.2,9.8 28,9.8 28,11.2 			"/>
			<g class="st7">
				<path class="st8" d="M38,5l20.7,0.4L38,6.5c-0.4,0-0.8-0.3-0.8-0.7C37.2,5.3,37.5,5,38,5C38,5,38,5,38,5z"/>
			</g>
			<path class="st3" d="M34.7,7.9v2.2h6.7C43,8,45.7,6.7,48.7,7.1c0.2,0,0.4,0,0.5,0.1c2.5,0.4,4.8,1.4,6.6,3h40.8
				c0.5-0.7,1.3-1.2,2.3-1.2c0.2,0,0.4,0,0.6,0c0.7,0.1,1.4,0.6,1.8,1.2h11.1V8.6c0-1.8-1-3.3-2.5-4.1H36.7
				C35.5,5.2,34.7,6.4,34.7,7.9z"/>
			<path class="st9" d="M175.3,215.2H19.2c-2.9,0-5.3-2.4-5.3-5.3v-0.3c0-2.9,2.4-5.3,5.3-5.3h156.1c2.9,0,5.3,2.4,5.3,5.3v0.3
				C180.6,212.8,178.2,215.2,175.3,215.2z"/>
			<path class="st10" d="M175.4,211.5H19c-2.2,0-4.1-1.5-4.8-3.6c-0.2,0.6-0.3,1.2-0.3,1.9c0,3,2.3,5.5,5.1,5.5h156.5
				c2.8,0,5.1-2.5,5.1-5.5c0-0.7-0.1-1.3-0.3-1.9C179.5,210,177.7,211.5,175.4,211.5z"/>
			<path class="st9" d="M172.2,305.9H19.3c-2.9,0-5.3-2.4-5.3-5.3v-0.4c0-2.9,2.4-5.3,5.3-5.3h152.9c2.9,0,5.3,2.4,5.3,5.3v0.4
				C177.4,303.5,175.1,305.9,172.2,305.9z"/>
			<path class="st10" d="M172.4,302.1H19.1c-2.2,0-4-1.5-4.7-3.6c-0.2,0.6-0.3,1.2-0.3,1.9c0,3,2.3,5.5,5,5.5h153.3
				c2.8,0,5-2.5,5-5.5c0-0.7-0.1-1.3-0.3-1.9C176.4,300.6,174.6,302.1,172.4,302.1z"/>
			<line class="st11" x1="137.9" y1="123" x2="164.9" y2="362"/>
			<line class="st11" x1="29.3" y1="362" x2="56.3" y2="123"/>
			<path class="st12" d="M178.1,134H16.5c-4.4,0-7.9-3.5-7.9-7.9V120c0-4.4,3.5-7.9,7.9-7.9h161.7c4.4,0,7.9,3.5,7.9,7.9v6.1
				C186.1,130.4,182.5,134,178.1,134z"/>
			<line class="st13" x1="183.1" y1="377" x2="156" y2="123"/>
			<line class="st13" x1="10.7" y1="377" x2="37.7" y2="123"/>
			<path class="st12" d="M171.1,320.7h11.6c0.2,0,0.3,0,0.4,0L173,226h-12L171.1,320.7z"/>
			<polygon class="st12" points="160.3,219.2 172.3,219.2 164.4,144.9 152.4,144.9 			"/>
			<polygon class="st12" points="164.4,144.9 163.2,134 151.2,134 152.4,144.9 			"/>
			<polygon class="st12" points="146.4,144.9 145.2,134 133.2,134 134.3,144.9 			"/>
			<polygon class="st12" points="161,226 173,226 172.3,219.2 160.3,219.2 			"/>
			<path class="st12" d="M183.8,327.3l-0.7-6.6c-0.1,0-0.3,0-0.4,0h-11.6l0.7,6.8h10.9C183.1,327.5,183.4,327.4,183.8,327.3z"/>
			<path class="st12" d="M43.6,123.7c0.3-3.3-2-6.2-5.3-6.6c-3.3-0.4-6.2,2-6.6,5.3L30.5,134h12L43.6,123.7z"/>
			<path class="st12" d="M22.7,320.7L32.7,226h-12l-10.1,94.9c0.4-0.2,0.9-0.3,1.3-0.3H22.7z"/>
			<polygon class="st12" points="41.4,144.9 29.3,144.9 21.4,219.2 33.5,219.2 			"/>
			<path class="st12" d="M10,326.8l-5.3,49.5c-0.3,3.3,2,6.2,5.3,6.6c0.2,0,0.4,0,0.6,0c3,0,5.6-2.3,5.9-5.3l5.3-50.1h-10
				C11.2,327.5,10.5,327.2,10,326.8z"/>
			<polygon class="st12" points="42.5,134 30.5,134 29.3,144.9 41.4,144.9 			"/>
			<polygon class="st12" points="61.1,134 49.1,134 47.9,144.9 59.9,144.9 			"/>
			<polygon class="st12" points="33.5,219.2 21.4,219.2 20.7,226 32.7,226 			"/>
			<path class="st12" d="M11.9,320.7c-0.5,0-0.9,0.1-1.3,0.3l-0.6,5.9c0.6,0.4,1.2,0.6,2,0.6h10l0.7-6.8H11.9z"/>
			<path class="st12" d="M180.6,221.2H14c-3,0-5.5-2.5-5.5-5.5l0,0c0-3,2.5-5.5,5.5-5.5h166.6c3,0,5.5,2.5,5.5,5.5l0,0
				C186.1,218.7,183.6,221.2,180.6,221.2z"/>
			<path class="st14" d="M180.6,217.4H14c-2.4,0-4.4-1.5-5.1-3.6c-0.2,0.6-0.3,1.2-0.3,1.9c0,3,2.5,5.5,5.5,5.5h166.6
				c3,0,5.5-2.5,5.5-5.5c0-0.7-0.1-1.3-0.3-1.9C185,215.9,183,217.4,180.6,217.4z"/>
			<path class="st15" d="M178.1,128H16.5c-4.4,0-7.9-3.5-7.9-7.9v6c0,4.4,3.5,7.9,7.9,7.9h161.7c4.4,0,7.9-3.5,7.9-7.9v-6
				C186.1,124.5,182.5,128,178.1,128z"/>
			<path class="st12" d="M180.6,322.6H14c-3,0-5.5-2.5-5.5-5.5l0,0c0-3,2.5-5.5,5.5-5.5h166.6c3,0,5.5,2.5,5.5,5.5l0,0
				C186.1,320.1,183.6,322.6,180.6,322.6z"/>
			<path class="st14" d="M185.7,315.1c-0.8,2-2.8,3.5-5.1,3.5H14c-2.3,0-4.3-1.4-5.1-3.5c-0.2,0.6-0.4,1.3-0.4,2
				c0,3,2.5,5.5,5.5,5.5h166.6c3,0,5.5-2.5,5.5-5.5C186.1,316.4,185.9,315.7,185.7,315.1z"/>
			<path class="st3" d="M131.7,110.8H95c-1.3,0-2.3,1-2.3,2.3c0,0.3,0.1,0.5,0.1,0.7c-0.1,0.2-0.1,0.3-0.1,0.5v2.6
				c0,0.4,0.2,0.7,0.6,0.8c1,0.2,0.8-1.1,0.8-1.7c0-0.3,0.1-0.5,0.4-0.6c0.1-0.1,0.3,0,0.4,0c1.2,0.1,2.3,0.1,3.4,0
				c0.7-0.1,1,0.2,1.3,0.8c0.3,0.6,0.5,1.2,0.5,1.9c0,1.1,0,2.3,0,3.1c0,0.8,0.6,1.6,1.4,1.6c0.9,0,1.6-0.7,1.6-1.5v-4.8
				c0-0.4,0.2-0.7,0.6-0.8c0.1,0,0.2-0.1,0.3-0.1c0.2,0,0.5,0.1,0.6,0.2c0.2,0.1,0.3,0.4,0.3,0.7v7.2c0,0.5,0.3,0.9,0.8,1
				c0.6,0.2,1,0.7,1,1.4c0,1,0,2.6,0,3.5c0,0.9,0.7,1.8,1.6,1.8c1.1,0.1,2-0.7,2-1.8c0-2.6,0-5.1,0-7.7c0-1.2,0-2.3,0-3.5
				c0-0.6-0.3-2.9,0.3-3.1c0.3-0.1,0.6-0.1,0.8-0.1c0.1,0,0.2,0,0.3,0.1c0.4,0.3,0.2,1.1,0.2,1.5c0,1.3,0,2.6,0,3.8
				c0,0.8,0.6,1.6,1.4,1.6c0.9,0,1.6-0.7,1.6-1.5V118c0-1.4,1.2-2.6,2.6-2.6h13.9c1.3,0,2.3-1,2.3-2.3
				C134,111.9,133,110.8,131.7,110.8z"/>
			<path class="st4" d="M107.8,129.6L107.8,129.6c-0.3,0-0.6-0.3-0.6-0.6l0.3-7.2l0.8,7.2C108.4,129.4,108.1,129.6,107.8,129.6z"/>
			<path class="st4" d="M105.6,123.5L105.6,123.5c-0.2,0-0.3-0.1-0.3-0.3l0.2-4l0.4,4C105.9,123.3,105.8,123.5,105.6,123.5z"/>
			<path class="st4" d="M100.8,121L100.8,121c-0.2,0-0.3-0.1-0.3-0.3l0.2-4l0.4,4C101.1,120.8,100.9,121,100.8,121z"/>
			<path class="st4" d="M93,116.4L93,116.4c-0.1,0-0.2-0.1-0.2-0.2l0.1-2l0.2,2C93.1,116.3,93,116.4,93,116.4z"/>
			<path class="st12" d="M189,376.3l-5.2-49.1c-0.4,0.1-0.7,0.2-1.1,0.2h-10.9l5.3,50.1c0.3,3.1,2.9,5.3,5.9,5.3c0.2,0,0.4,0,0.6,0
				C187,382.5,189.4,379.6,189,376.3z"/>
		</g>
	</g>
	<g>
		<path class="st16" d="M442.9,371.6c-3.4-0.5-7.1-0.2-10.5-0.2c-11.1,0-22.1,0-33.2,0c-22.1,0-44.2,0-66.4,0
			c0.2-0.4,0.6-9.3-1.1-8.3c1.7-1,2.8-2.9,2.5-5.1c-0.3-2.6-2.6-4.4-5.2-4.4H202.7c-2.1,0-4.1,1-5.1,2.8c-0.9,1.5-0.8,2.7-0.5,3.8
			c-13,0-26-0.8-38.9-1c-10.5-0.2-24.1-1.8-34.1,2.1c-8.1,3.1-7.5,14.9,2,14.9h106.6c3.7,0,6.5,3.1,6.5,6.8c0,0,0,0.1,0,0.1v10.7
			c0,6.4,5.2,11.6,11.6,11.6c32.1,0,64.2,0,96.3,0c18.8,0,37.6,0,56.4,0c7.3,0,14.6,0,21.9,0c7.2,0,18.2,2,24.1-2
			C460.1,395.8,455.9,373.5,442.9,371.6z"/>
		<path class="st4" d="M249.8,396.7L249.8,396.7c0-1.4,2.3-2.6,5.2-2.6l41.2,1.9l-41.2,3.2C252.1,399.2,249.7,398.1,249.8,396.7z"/>
		<path class="st4" d="M201.3,359.8L201.3,359.8c0-1.4,2.3-2.6,5.2-2.6l41.2,1.9l-41.2,3.2C203.6,362.4,201.3,361.2,201.3,359.8z"/>
		<path class="st17" d="M327.6,368.4l22.2-16.2c1.7-1.3,2.7-3.3,2.7-5.4l0,0c0-3.7-3-6.7-6.7-6.7l-30.1,0.1L327.6,368.4z"/>
		<path class="st18" d="M311.1,95.7v71.7h2.9l-2.7,129c-0.1,3.8-3.3,7-7.1,7h-50.2c-9.1,0-16.4,7.4-16.4,16.4v24.7h9.3v-24.7
			c0-3.9,3.2-7.1,7.1-7.1h50.2c8.9,0,16.2-7.2,16.4-16.1l2.7-129.7c2.5-1,4.4-3.4,4.4-6.3v-56c0-5-4-9-9-9H311.1z"/>
		<path class="st19" d="M254.8,352.4l-27.2,0c-6.3,0-10.7-5.2-9.9-11.6l2.6-20.7c0.8-6.4,6.5-11.6,12.8-11.6l45.7,0
			c6.3,0,12-5.2,12.8-11.6l24.1-195.7"/>
		<path class="st20" d="M329.9,335.1c0,0-90-0.1-90.2-0.2c-3.2-0.4-6.8,6.8-7.9,16c-0.8,6.4-0.2,12.1,1.3,15.1
			c0.5,1.4,1.4,2.3,3,2.3l90.6-0.1c2.9-0.3,5-4.1,5.5-8.4l0.5-16.9C333.1,338.6,334.2,335.1,329.9,335.1z"/>
		<path class="st21" d="M329.9,335.1c0,0-25.1,0-48.8-0.1c-2.6,0-4.7,2.1-4.7,4.7l0,0c0,2.6-2.1,4.7-4.7,4.7H233
			c-0.5,2-1,4.2-1.3,6.5c-0.2,1.5-0.3,2.9-0.3,4.3H276c4.6,0,8.7,2.4,11,6.1c2.7,4.2,7.2,6.9,12.3,6.9l27.4,0c2.9-0.3,5-4.1,5.5-8.4
			l0.5-16.9C333.1,338.6,334.2,335.1,329.9,335.1z"/>
		<path class="st22" d="M323.6,360.8l-83.8-0.1c-4.3,0-7.3-3.5-6.8-7.9l-0.9,7.6c-0.5,4.3,2.5,7.9,6.8,7.9l83.8,0.1
			c4.3,0,8.2-3.5,8.7-7.9l0.9-7.6C331.8,357.3,327.9,360.8,323.6,360.8z"/>
		<path class="st23" d="M231.7,355.9c1.1-9.2,1.8-16,7.9-16c0.2,0,90.2,0.2,90.2,0.2c1.6,0,2.5,0.5,2.9,1.4c0.5-3.6,0.9-6.4-2.9-6.4
			c0,0-90-0.1-90.2-0.2c-3.2-0.4-6.8,6.8-7.9,16c-0.3,2.9-0.4,5.5-0.3,7.9C231.5,357.9,231.6,356.9,231.7,355.9z"/>
		<path class="st20" d="M308.6,168.7l-2.2,0c-4.7,0-8.1-3.9-7.5-8.7l7.8-63.4c0.6-4.8,4.9-8.7,9.7-8.7l2.2,0c4.7,0,8.1,3.9,7.5,8.7
			l-7.8,63.4C317.7,164.8,313.3,168.7,308.6,168.7z"/>
		<path class="st24" d="M321.8,88.5l-7.6,61.6c-0.6,4.8-4.9,8.7-9.7,8.7l-2.2,0c-1.2,0-2.3-0.2-3.2-0.7l-0.2,1.8
			c-0.6,4.8,2.8,8.7,7.5,8.7l2.2,0c4.7,0,9.1-3.9,9.7-8.7l7.8-63.4C326.5,93,324.7,89.9,321.8,88.5z"/>
		<path class="st3" d="M334.6,352.4c-1.1,9.2-4.7,16.4-7.9,16c-3.2-0.4-5-8.2-3.8-17.5c1.1-9.2,4.7-16.4,7.9-16
			C334,335.3,335.7,343.2,334.6,352.4z"/>
		<path class="st12" d="M331.5,352.1c-0.4,3-1.8,5.3-3.3,5.1c-1.4-0.2-2.3-2.8-2-5.8c0.4-3,1.8-5.3,3.3-5.1
			C331,346.5,331.9,349.1,331.5,352.1z"/>
	</g>
</g>
</svg>
